Coordinates
version=1
nRows=13
nColumns=18
inDegrees=yes

Units are S.I. units (second, meters, Newtons, ...)
If the header above contains a line with 'inDegrees', this indicates whether rotational values are in degrees (yes) or radians (no).

endheader
time	ground_thorax_rot_x	ground_thorax_rot_y	ground_thorax_rot_z	ground_thorax_tx	ground_thorax_ty	ground_thorax_tz	clav_prot	clav_elev	scapula_abduction	scapula_elevation	scapula_upward_rot	scapula_winging	plane_elv	shoulder_elv	axial_rot	elbow_flexion	pro_sup
      0.00000000	      7.02273287	      3.15458289	     -6.38397947	     -0.03149636	      0.01246957	      0.02829561	    -31.88084858	    -14.24070542	    -36.32722350	    -13.12489768	     18.43639817	     18.53706442	    -27.33943319	     12.04323307	     49.01873817	      0.00225791	    -90.00000000
      0.02000000	      7.05184423	      3.07232774	     -6.32842898	     -0.03142353	      0.01260936	      0.02843863	    -31.85964787	    -14.21235186	    -36.30307888	    -13.10129247	     18.43009627	     18.52514985	    -26.91876188	     12.13470931	     48.47256032	      0.00225791	    -90.00000000
      0.04000000	      6.99058074	      3.02584678	     -6.36953567	     -0.03130066	      0.01245459	      0.02827437	    -31.74418238	    -14.14624509	    -36.16071503	    -13.03225416	     18.37394243	     18.51420780	    -26.33084931	     12.21799729	     47.80915874	      0.00225791	    -90.00000000
      0.06000000	      6.99458520	      3.24396341	     -6.31336937	     -0.03127785	      0.01276431	      0.02830522	    -31.97215151	    -14.19445044	    -36.42521427	    -13.12140239	     18.54137416	     18.47748182	    -26.99437298	     12.06901718	     48.68052789	      0.00225791	    -90.00000000
      0.08000000	      6.93648191	      3.18777660	     -6.35537601	     -0.03112204	      0.01259882	      0.02815117	    -31.85371417	    -14.12811298	    -36.28049311	    -13.05119348	     18.48159739	     18.46782423	    -26.40230546	     12.15233425	     48.01094966	      0.00225791	    -90.00000000
      0.10000000	      6.96306471	      3.08384544	     -6.30831399	     -0.03099646	      0.01269350	      0.02835586	    -31.80597946	    -14.09735395	    -36.22872386	    -13.01826233	     18.45018329	     18.46326897	    -25.95561944	     12.24535503	     47.45225619	      0.00225791	    -90.00000000
      0.12000000	      6.90335012	      3.23406059	     -6.29290528	     -0.03094550	      0.01283367	      0.02826637	    -31.90946736	    -14.15133830	    -36.35759405	    -13.07634437	     18.50083211	     18.46989293	    -26.26270040	     12.17603254	     47.74748454	      0.00225791	    -90.00000000
      0.14000000	      6.89603101	      3.23993557	     -6.27539670	     -0.03085319	      0.01289740	      0.02832165	    -31.88581436	    -14.14575019	    -36.33108400	    -13.06643275	     18.48243645	     18.47360109	    -26.03482651	     12.23244613	     47.44815165	      0.00225791	    -90.00000000
      0.16000000	      6.85491708	      3.19112688	     -6.31156986	     -0.03069744	      0.01272093	      0.02828521	    -31.76827205	    -14.08186162	    -36.18983233	    -12.99719886	     18.41895388	     18.46593570	    -25.46169629	     12.29704193	     46.80663971	      0.00225791	    -90.00000000
      0.18000000	      6.89460298	      3.18130234	     -6.25772378	     -0.03065296	      0.01288143	      0.02855112	    -31.78515055	    -14.09090921	    -36.21819427	    -13.00451432	     18.41709303	     18.46936521	    -25.24055835	     12.34214659	     46.42775371	      0.00225791	    -90.00000000
      0.20000000	      6.86068239	      3.14361869	     -6.29299552	     -0.03050625	      0.01270351	      0.02858087	    -31.66975615	    -14.02884805	    -36.08080301	    -12.93651066	     18.35262668	     18.46258961	    -24.68462924	     12.39422002	     45.80894641	      0.00225791	    -90.00000000
      0.22000000	      6.63731009	      3.32856968	     -6.26375118	     -0.03040486	      0.01315376	      0.02844479	    -31.77596106	    -14.42523000	    -36.19473389	    -13.21871658	     18.28833347	     18.68478098	    -26.09845621	     12.29654775	     47.50311118	      0.00225791	    -90.00000000
      0.24000000	      6.61518568	      3.29532927	     -6.29025318	     -0.03030106	      0.01297897	      0.02856818	    -31.66014668	    -14.36318795	    -36.05675370	    -13.15054660	     18.22330871	     18.67738762	    -25.53040480	     12.34070075	     46.86241466	      0.00225791	    -90.00000000
